<svg xmlns="http://www.w3.org/2000/svg" width="243" height="243" viewBox="0 0 243 243" version="1.1">
	<path d="M 47.500 19 C 47.160 19.550, 47.160 20.450, 47.500 21 C 47.899 21.645, 66.177 22, 99.059 22 C 149.333 22, 150 21.974, 150 20 C 150 18.026, 149.333 18, 99.059 18 C 66.177 18, 47.899 18.355, 47.500 19 M 48.104 32.914 C 47.337 33.400, 46.985 34.519, 47.323 35.399 C 47.875 36.838, 53.048 37, 98.346 37 C 138.952 37, 148.969 36.743, 149.854 35.676 C 152.725 32.217, 149.715 32, 99.050 32.015 C 71.797 32.024, 48.872 32.428, 48.104 32.914 M 47.323 48.601 C 46.985 49.481, 47.337 50.600, 48.104 51.086 C 48.872 51.572, 71.832 51.976, 99.128 51.985 C 139.100 51.997, 148.969 51.742, 149.854 50.676 C 152.728 47.214, 149.731 47, 98.269 47 C 53.042 47, 47.875 47.162, 47.323 48.601 M 144 73.265 L 144 85.530 131.472 98.015 L 118.943 110.500 119.222 162.500 C 119.530 220.082, 119.126 216.518, 126.261 224.645 C 136.416 236.211, 156.211 235.749, 166.520 223.705 C 172.523 216.692, 173 213.405, 173 179.018 C 173 158.303, 172.648 148.048, 171.913 147.313 C 171.130 146.530, 171.130 146.038, 171.913 145.554 C 172.628 145.112, 173 138.987, 173 127.676 L 173 110.470 160.500 98 L 148 85.530 148 73.265 C 148 61.667, 147.891 61, 146 61 C 144.109 61, 144 61.667, 144 73.265 M 47.500 63 C 47.160 63.550, 47.160 64.450, 47.500 65 C 47.896 65.641, 63.010 66, 89.559 66 C 130.333 66, 131 65.968, 131 64 C 131 62.032, 130.333 62, 89.559 62 C 63.010 62, 47.896 62.359, 47.500 63 M 132.731 102.768 L 123 112.536 123 121 L 123 129.464 133.500 119 L 144 108.536 144 100.768 C 144 96.496, 143.654 93, 143.231 93 C 142.808 93, 138.083 97.396, 132.731 102.768 M 148 100.538 L 148 108.538 158 118.500 L 168 128.462 168 120.462 L 168 112.462 158 102.500 L 148 92.538 148 100.538 M 132.731 125.768 L 123 135.536 123 154 L 123 172.464 133.500 162 L 144 151.536 144 133.768 C 144 123.996, 143.654 116, 143.231 116 C 142.808 116, 138.083 120.396, 132.731 125.768 M 148 129.180 L 148 142.538 158 152.500 L 168 162.462 168 155.972 C 168 150.370, 167.699 149.293, 165.803 148.109 L 163.606 146.737 165.803 144.958 C 167.470 143.608, 168 142.106, 168 138.728 C 168 134.372, 167.787 134.080, 158 125.049 L 148 115.822 148 129.180 M 148 163.038 L 148 176.538 158 186.500 L 168 196.462 168 182.962 L 168 169.462 158 159.500 L 148 149.538 148 163.038 M 133.559 168.938 C 124.043 178.493, 123.690 179, 125.317 180.798 C 126.921 182.571, 126.904 182.777, 125.008 184.493 C 123.286 186.051, 123 187.568, 123 195.155 C 123 200.020, 123.346 204, 123.769 204 C 124.192 204, 128.931 199.590, 134.300 194.201 L 144.063 184.401 143.781 171.679 L 143.500 158.957 133.559 168.938 M 148 206.288 L 148 229.038 150.750 228.401 C 160.105 226.233, 167.972 216.915, 167.991 207.981 C 168 203.584, 167.730 203.194, 158 193.500 L 148 183.538 148 206.288 M 133.599 200.901 C 123.874 210.662, 123.751 210.846, 124.831 213.945 C 127.236 220.843, 133.880 226.693, 141.250 228.401 L 144 229.038 144 210.019 C 144 199.559, 143.879 191, 143.731 191 C 143.583 191, 139.024 195.455, 133.599 200.901" stroke="none" fill="black" fill-rule="evenodd"/>
</svg>