<svg xmlns="http://www.w3.org/2000/svg" width="234" height="234" viewBox="0 0 234 234" version="1.1">
	<path d="M 0 117.004 L 0 234.008 117.250 233.754 L 234.500 233.500 234.754 116.750 L 235.008 0 117.504 0 L 0 0 0 117.004 M 0.484 117.500 C 0.484 181.850, 0.603 208.028, 0.750 175.673 C 0.896 143.318, 0.896 90.668, 0.750 58.673 C 0.603 26.678, 0.484 53.150, 0.484 117.500 M 46.500 11 C 46.160 11.550, 46.160 12.450, 46.500 13 C 46.899 13.645, 65.177 14, 98.059 14 C 148.333 14, 149 13.974, 149 12 C 149 10.026, 148.333 10, 98.059 10 C 65.177 10, 46.899 10.355, 46.500 11 M 47.036 25.456 C 46.372 26.257, 46.118 27.382, 46.473 27.956 C 46.907 28.659, 63.609 29, 97.590 29 C 142.946 29, 148.125 28.838, 148.677 27.399 C 149.015 26.519, 148.663 25.400, 147.896 24.914 C 147.128 24.428, 124.393 24.024, 97.372 24.015 C 55.567 24.002, 48.065 24.217, 47.036 25.456 M 46.326 40.592 C 45.985 41.481, 46.334 42.600, 47.104 43.091 C 47.884 43.588, 70.568 43.874, 98.500 43.740 C 147.753 43.504, 148.500 43.470, 148.500 41.500 C 148.500 39.530, 147.747 39.496, 97.722 39.241 C 51.815 39.007, 46.885 39.136, 46.326 40.592 M 143 65.265 L 143 77.530 130.500 90 L 118 102.470 118 137.535 C 118 161.452, 118.346 172.946, 119.087 173.687 C 119.870 174.470, 119.870 174.962, 119.087 175.446 C 117.312 176.543, 117.683 201.712, 119.554 207.205 C 121.709 213.529, 127.044 219.385, 133.551 222.569 C 138.435 224.958, 139.887 225.206, 146.514 224.781 C 152.494 224.397, 154.924 223.719, 158.739 221.372 C 163.923 218.181, 169.353 210.991, 170.967 205.177 C 172.397 200.032, 172.347 140.747, 170.913 139.313 C 170.130 138.530, 170.130 138.038, 170.913 137.554 C 171.628 137.112, 172 130.987, 172 119.676 L 172 102.470 159.500 90 L 147 77.530 147 65.265 C 147 53.667, 146.891 53, 145 53 C 143.109 53, 143 53.667, 143 65.265 M 46.507 54.989 C 46.163 55.545, 46.160 56.450, 46.500 57 C 46.896 57.641, 62.035 58, 88.632 58 C 127.631 58, 130.126 57.894, 129.810 56.250 C 129.497 54.622, 126.598 54.482, 88.302 54.239 C 61.353 54.068, 46.916 54.327, 46.507 54.989 M 132.250 94.244 L 122 104.534 122 113.011 L 122 121.488 132.544 110.945 L 143.087 100.401 142.794 92.177 L 142.500 83.954 132.250 94.244 M 147 92.038 L 147 100.538 157 110.500 L 167 120.462 167 111.962 L 167 103.462 157 93.500 L 147 83.538 147 92.038 M 132.250 117.248 L 122 127.534 122 145.767 C 122 155.795, 122.346 164, 122.769 164 C 123.192 164, 127.927 159.594, 133.292 154.209 L 143.046 144.418 142.773 125.690 L 142.500 106.961 132.250 117.248 M 147 121.038 L 147 135.538 157 145.500 L 167 155.462 167 148.560 C 167 143.421, 166.558 141.169, 165.271 139.747 C 163.632 137.936, 163.632 137.786, 165.271 136.868 C 166.529 136.164, 167 134.615, 167 131.182 C 167 126.535, 166.847 126.310, 157 116.500 L 147 106.538 147 121.038 M 147 155.038 L 147 168.538 157 178.500 L 167 188.462 167 174.962 L 167 161.462 157 151.500 L 147 141.538 147 155.038 M 132.607 160.671 C 123.114 169.715, 122.767 170.195, 124.021 172.538 C 125.138 174.627, 125.087 175.247, 123.664 176.819 C 122.360 178.260, 122 180.695, 122 188.073 L 122 197.488 132.531 186.957 L 143.063 176.425 142.781 163.835 L 142.500 151.246 132.607 160.671 M 147 197.877 L 147 221.217 149.750 220.540 C 159.509 218.138, 166.210 210.306, 166.783 200.633 L 167.147 194.500 157.073 184.519 L 147 174.538 147 197.877 M 132.598 192.902 C 121.528 204.013, 121.471 204.209, 127.031 211.884 C 129.887 215.827, 138.188 220.962, 141.750 220.990 C 142.706 220.998, 143 216.539, 143 202 C 143 191.550, 142.879 183, 142.731 183 C 142.583 183, 138.024 187.456, 132.598 192.902" stroke="none" fill="black" fill-rule="evenodd"/>
</svg>